HIERARCHY
ROOT Hips
{
	OFFSET 0.000000 0.000000 0.000000
	CHANNELS 6 Xposition Yposition Zposition Xrotation Yrotation Zrotation
	JOINT LeftUpLeg_virtual
	{
		OFFSET 0.000000 0.000000 0.000000
		CHANNELS 3 Xrotation Yrotation Zrotation
		JOINT LeftUpLeg
		{
			OFFSET 13.026900 -6.336304 -1.092800
			CHANNELS 3 Xrotation Yrotation Zrotation
			JOINT LeftLeg
			{
				OFFSET 0.524474 -46.096886 9.782700
				CHANNELS 3 Xrotation Yrotation Zrotation
				JOINT LeftFoot
				{
					OFFSET -0.524474 -53.427422 -12.948200
					CHANNELS 3 Xrotation Yrotation Zrotation
					JOINT LeftToeBase
					{
						OFFSET 0.192200 -14.009700 16.364100
						CHANNELS 3 Xrotation Yrotation Zrotation
						JOINT LeftToe_End
						{
							OFFSET -1.784700 -0.561700 9.474800
							CHANNELS 3 Xrotation Yrotation Zrotation
							End Site
							{
								OFFSET 0 0 0
							}
						}
					}
				}
			}
		}
	}
	JOINT RightUpLeg_virtual
	{
		OFFSET 0.000000 0.000000 0.000000
		CHANNELS 3 Xrotation Yrotation Zrotation
		JOINT RightUpLeg
		{
			OFFSET -12.883000 -6.336304 -1.092800
			CHANNELS 3 Xrotation Yrotation Zrotation
			JOINT RightLeg
			{
				OFFSET -0.524587 -46.096825 9.782800
				CHANNELS 3 Xrotation Yrotation Zrotation
				JOINT RightFoot
				{
					OFFSET 0.524587 -53.427383 -12.948300
					CHANNELS 3 Xrotation Yrotation Zrotation
					JOINT RightToeBase
					{
						OFFSET -0.192200 -14.009700 16.364100
						CHANNELS 3 Xrotation Yrotation Zrotation
						JOINT RightToe_End
						{
							OFFSET 1.784700 -0.561700 9.474800
							CHANNELS 3 Xrotation Yrotation Zrotation
							End Site
							{
								OFFSET 0 0 0
							}
						}
					}
				}
			}
		}
	}
	JOINT Spine_virtual
	{
		OFFSET 0.000000 0.000000 0.000000
		CHANNELS 3 Xrotation Yrotation Zrotation
		JOINT Spine
		{
			OFFSET 0.072000 7.257294 -0.789700
			CHANNELS 3 Xrotation Yrotation Zrotation
			JOINT Spine1
			{
				OFFSET 0.000000 12.508769 -0.658067
				CHANNELS 3 Xrotation Yrotation Zrotation
				JOINT Spine1_split
				{
					OFFSET 0.000000 12.508769 -0.658067
					CHANNELS 3 Xrotation Yrotation Zrotation
					JOINT Spine2
					{
						OFFSET 0.000000 12.508769 -0.658067
						CHANNELS 3 Xrotation Yrotation Zrotation
						JOINT Neck_virtual
						{
							OFFSET 0.000000 0.000000 0.000000
							CHANNELS 3 Xrotation Yrotation Zrotation
							JOINT Neck
							{
								OFFSET 0.000000 14.033295 7.520400
								CHANNELS 3 Xrotation Yrotation Zrotation
								JOINT Head
								{
									OFFSET 0.000000 8.198502 5.703100
									CHANNELS 3 Xrotation Yrotation Zrotation
									JOINT HeadTop_End
									{
										OFFSET 0.000000 17.760803 13.332701
										CHANNELS 3 Xrotation Yrotation Zrotation
										End Site
										{
											OFFSET 0 0 0
										}
									}
								}
							}
						}
						JOINT LeftShoulder_virtual
						{
							OFFSET 0.000000 0.000000 0.000000
							CHANNELS 3 Xrotation Yrotation Zrotation
							JOINT LeftShoulder
							{
								OFFSET 6.292450 5.785301 -0.669000
								CHANNELS 3 Xrotation Yrotation Zrotation
								JOINT LeftShoulder_split
								{
									OFFSET 6.292450 5.785301 -0.669000
									CHANNELS 3 Xrotation Yrotation Zrotation
									JOINT LeftArm
									{
										OFFSET 13.907140 -6.093903 1.965100
										CHANNELS 3 Xrotation Yrotation Zrotation
										JOINT LeftForeArm
										{
											OFFSET 34.140198 0.000000 0.000000
											CHANNELS 3 Xrotation Yrotation Zrotation
											JOINT LeftHand
											{
												OFFSET 40.960209 0.000000 0.000000
												CHANNELS 3 Xrotation Yrotation Zrotation
												End Site
												{
													OFFSET 0 0 0
												}
											}
										}
									}
								}
							}
						}
						JOINT RightShoulder_virtual
						{
							OFFSET 0.000000 0.000000 0.000000
							CHANNELS 3 Xrotation Yrotation Zrotation
							JOINT RightShoulder
							{
								OFFSET -6.292450 5.785301 -0.669000
								CHANNELS 3 Xrotation Yrotation Zrotation
								JOINT RightShoulder_split
								{
									OFFSET -6.292450 5.785301 -0.669000
									CHANNELS 3 Xrotation Yrotation Zrotation
									JOINT RightArm
									{
										OFFSET -13.907140 -6.093903 1.965100
										CHANNELS 3 Xrotation Yrotation Zrotation
										JOINT RightForeArm
										{
											OFFSET -34.140198 0.000000 0.000000
											CHANNELS 3 Xrotation Yrotation Zrotation
											JOINT RightHand
											{
												OFFSET -40.960209 0.000000 0.000000
												CHANNELS 3 Xrotation Yrotation Zrotation
												End Site
												{
													OFFSET 0 0 0
												}
											}
										}
									}
								}
							}
						}
					}
				}
			}
		}
	}
}
MOTION
Frames: 6
Frame Time: 0.03333333
-3.784059 87.001350 7.452160 0.000000 0.000000 0.000000 9.263987 55.390092 -2.014660 -80.176217 -9.799595 -31.326652 49.200943 -4.724021 2.099716 21.369731 -24.444958 1.235442 -6.061564 3.313643 1.819004 0.000000 0.000000 0.000000 11.133162 53.981796 -3.428008 31.301169 -32.661128 8.036220 32.926081 24.748542 -3.462493 -34.390699 -15.808903 -4.768578 -23.246672 4.127803 -8.263906 0.000000 0.000000 0.000000 16.430519 60.249208 -9.337792 8.904729 15.330013 -5.173572 6.033727 11.107519 0.803830 0.453560 0.111655 0.008488 0.000000 0.000000 0.000000 5.231892 13.353546 -0.325140 15.941455 -22.480096 24.313930 149.624392 -76.502832 -169.946718 0.000000 0.000000 0.000000 5.637841 11.581175 -1.114682 1.126861 -4.934155 7.809230 -3.387909 -2.291828 -2.505271 -40.686184 6.888423 -34.412221 66.569640 -14.066815 33.180892 0.000000 0.000000 0.000000 8.387739 12.664515 -1.512315 -4.082480 -9.717724 -19.308489 -4.327999 2.817475 6.257208 -33.207605 2.655850 1.206560 -19.247758 19.458219 0.968818 0.000000 0.000000 0.000000 
-3.368075 86.687103 7.767281 0.000000 0.000000 0.000000 9.749694 53.437672 -2.364782 -80.073313 -10.681682 -30.772324 49.498166 -4.407533 1.284146 19.754942 -23.095846 0.992453 -5.667469 3.162161 1.881931 0.000000 0.000000 0.000000 11.770731 51.959609 -3.759556 30.112866 -32.822262 6.898928 33.706290 25.335403 -3.812526 -34.756405 -15.261219 -5.132735 -22.824619 4.074440 -7.715917 0.000000 0.000000 0.000000 16.699597 57.951949 -9.295363 8.986517 14.815940 -5.520758 6.294301 11.619892 1.080003 0.382570 0.057143 -0.031388 0.000000 0.000000 0.000000 5.083474 13.730378 0.031230 16.457725 -21.298664 23.893836 166.089259 -74.143657 -151.979782 0.000000 0.000000 0.000000 5.467075 12.034236 -0.999549 1.265312 -3.408413 6.880849 -3.045610 -2.317978 -1.924391 -35.465265 10.796691 -31.950344 69.311974 -17.078420 36.330275 0.000000 0.000000 0.000000 8.275260 13.205115 -1.218078 -4.669130 -8.181876 -19.203430 -5.781524 2.745970 5.677488 -36.421147 0.885652 1.537039 -21.283763 22.277664 4.975460 0.000000 0.000000 0.000000 
-2.817797 86.547211 8.036839 0.000000 0.000000 0.000000 9.868322 50.735526 -2.439796 -79.543837 -11.364140 -29.604608 50.390499 -4.532315 0.596236 18.577616 -22.115104 0.490880 -5.547115 2.866553 2.407106 0.000000 0.000000 0.000000 12.012152 49.131029 -3.752129 28.085625 -32.740560 5.131774 34.383797 26.141210 -4.235899 -34.392048 -15.135682 -4.752696 -22.786867 3.957580 -7.189353 0.000000 0.000000 0.000000 16.365550 55.133355 -8.885255 8.897913 14.202139 -5.479314 6.544152 12.182156 1.262090 0.249178 0.089041 -0.116930 0.000000 0.000000 0.000000 5.195512 14.193731 0.322832 16.404986 -20.407299 23.414472 178.330720 -72.483798 -139.126650 0.000000 0.000000 0.000000 5.255027 12.654268 -0.943761 1.334100 -1.883923 6.162900 -2.983492 -3.055654 -1.265396 -30.220599 16.713191 -29.160072 71.923087 -20.050551 39.785804 0.000000 0.000000 0.000000 8.233441 13.907105 -0.927904 -5.398273 -6.623257 -18.722269 -7.010530 3.524865 4.850826 -42.071722 0.031750 2.687602 -23.202965 23.125569 8.622661 0.000000 0.000000 0.000000 
-2.160220 86.639687 8.175079 0.000000 0.000000 0.000000 9.771576 47.160756 -2.225757 -78.516248 -11.554158 -27.748338 51.358682 -4.698616 -0.080381 17.722821 -21.241072 0.564265 -5.165484 2.443094 3.196794 0.000000 0.000000 0.000000 11.914604 45.658029 -3.415129 25.321050 -32.182519 2.819996 35.424937 27.113368 -4.841871 -33.121831 -15.510733 -3.299037 -23.960498 3.793702 -6.612165 0.000000 0.000000 0.000000 15.468345 51.603247 -8.035514 8.690840 13.515808 -4.946639 6.749659 12.626671 1.254210 0.101711 0.197569 -0.138433 0.000000 0.000000 0.000000 5.446354 14.590611 0.444301 16.059192 -19.451685 22.727965 -169.654864 -71.839397 -127.239020 0.000000 0.000000 0.000000 5.030273 13.229727 -1.018959 1.332118 -0.059715 5.692494 -3.009523 -4.295507 -0.671087 -24.981847 24.137996 -26.845217 74.143295 -22.780764 43.331051 0.000000 0.000000 0.000000 8.315338 14.553793 -0.778919 -6.158767 -5.248900 -17.624070 -7.634295 4.953434 3.803993 -48.586223 0.975152 4.810409 -24.357365 21.789688 11.144154 0.000000 0.000000 0.000000 
-1.545704 86.934494 8.211323 0.000000 0.000000 0.000000 9.573365 42.691906 -1.697397 -76.970761 -11.280261 -25.397160 51.670589 -4.497801 -0.769662 16.793125 -19.991687 1.593882 -3.937026 2.011350 3.838297 0.000000 0.000000 0.000000 11.488161 41.476139 -2.723806 22.025605 -31.057864 0.155110 37.075093 27.899202 -5.594621 -31.680688 -16.220070 -1.732525 -24.922778 3.506488 -5.909559 0.000000 0.000000 0.000000 14.290923 47.563142 -6.837359 8.476792 12.759554 -4.000229 6.875201 12.749126 1.028458 0.017097 0.284550 -0.139896 0.000000 0.000000 0.000000 5.686562 14.730264 0.366680 15.713958 -18.094442 21.737103 -154.201766 -71.914980 -112.344345 0.000000 0.000000 0.000000 4.850520 13.532766 -1.226543 1.301132 2.181289 5.481709 -2.968934 -5.742046 -0.248406 -19.063939 32.408322 -26.079769 75.828849 -25.327298 46.903835 0.000000 0.000000 0.000000 8.477481 14.872585 -0.857569 -6.823489 -4.304155 -15.798018 -7.599371 6.238723 3.240158 -54.447290 3.964563 8.198233 -24.701178 19.841715 12.585052 0.000000 0.000000 0.000000 
-1.036064 87.577332 8.083694 0.000000 0.000000 0.000000 9.324622 37.485379 -0.895642 -75.065145 -10.732321 -22.821383 51.265703 -3.948290 -1.379757 15.611372 -18.208422 3.055422 -2.050909 1.663509 4.113376 0.000000 0.000000 0.000000 10.779383 36.651198 -1.721238 18.344049 -29.425117 -2.719871 38.927826 28.203736 -6.343946 -30.980772 -17.028334 -0.940439 -24.272489 3.123157 -5.089244 0.000000 0.000000 0.000000 13.068291 42.944350 -5.437683 8.333453 11.926131 -2.804786 6.874942 12.449919 0.651342 -0.039289 0.305553 -0.093021 0.000000 0.000000 0.000000 5.819943 14.502624 0.117517 15.457726 -16.156065 20.258693 -133.224056 -71.428049 -92.160986 0.000000 0.000000 0.000000 4.779814 13.405333 -1.557637 1.287073 4.733786 5.402292 -2.676824 -6.841487 -0.258813 -11.694249 40.654867 -27.853634 77.026980 -27.525498 50.265725 0.000000 0.000000 0.000000 8.632726 14.710225 -1.114747 -7.347772 -4.008633 -13.358630 -7.126403 6.522790 3.597839 -58.680566 8.689622 13.061361 -24.818515 19.640559 13.534349 0.000000 0.000000 0.000000 
